 <svg  version="1.0" xmlns="http://www.w3.org/2000/svg"  width="236.000000pt" height="236.000000pt" viewBox="0 0 236.000000 236.000000"  preserveAspectRatio="xMidYMid meet">  <g transform="translate(0.000000,236.000000) scale(0.100000,-0.100000)" fill="#43ad7b" stroke="none"> <path d="M457 1983 c-15 -15 -5 -23 28 -23 31 0 38 -5 50 -32 7 -18 12 -35 10 -39 -2 -3 -30 -11 -62 -18 -118 -26 -236 -113 -309 -227 -99 -154 -99 -345 1 -461 19 -22 31 -44 27 -48 -4 -5 -2 -5 4 -2 6 3 32 -5 58 -18 26 -13 70 -29 99 -35 l52 -12 -3 -74 c-4 -91 17 -171 58 -218 17 -18 30 -36 30 -39 0 -3 -25 5 -55 19 -66 29 -85 23 -115 -36 -23 -45 -50 -142 -50 -180 0 -14 6 -35 14 -45 12 -16 18 -17 38 -8 26 12 68 88 68 123 0 26 2 26 52 -10 24 -17 60 -33 80 -36 35 -6 38 -4 67 41 16 26 33 60 36 75 5 24 13 29 63 40 31 7 65 16 74 21 14 8 18 1 28 -46 14 -65 33 -80 95 -72 56 8 147 43 180 69 29 23 30 54 3 72 -16 10 -68 2 -133 -18 -18 -6 -20 -2 -23 51 -6 105 -37 132 -118 98 -30 -12 -39 -13 -46 -3 -14 23 -9 48 11 48 60 0 204 64 297 133 59 43 62 44 77 26 23 -27 59 -33 99 -16 23 10 40 12 52 5 24 -13 48 -3 71 32 24 37 39 38 61 5 23 -36 14 -218 -20 -385 -14 -68 -24 -125 -23 -127 8 -7 606 -28 822 -28 30 0 30 0 42 80 15 106 15 105 -2 105 -13 0 -14 12 -10 68 33 421 35 391 -22 427 -25 17 -50 33 -55 36 -4 3 1 47 12 99 12 51 17 97 13 101 -4 4 -62 31 -128 58 -66 28 -128 55 -137 61 -13 7 -46 -3 -134 -40 -64 -27 -118 -51 -120 -53 -2 -2 7 -48 20 -103 13 -54 27 -113 31 -131 l6 -31 -70 -23 c-63 -20 -71 -26 -71 -48 -1 -15 0 -122 0 -238 l1 -213 -29 0 -28 0 7 73 c11 107 10 296 -2 347 -12 54 -31 77 -71 85 -17 4 -33 16 -38 30 -13 33 -58 65 -94 65 -45 0 -124 -40 -213 -108 -106 -80 -185 -125 -268 -154 -114 -41 -122 -42 -122 -14 -1 19 6 25 29 30 55 11 157 66 200 109 24 23 56 51 71 61 77 49 104 230 52 344 -30 66 -144 181 -215 217 -66 33 -148 55 -214 57 -53 1 -68 9 -46 23 15 9 12 48 -4 71 -18 24 -31 13 -17 -14 8 -15 8 -29 0 -49 l-11 -28 -13 38 c-15 43 -13 40 -42 56 -24 12 -46 14 -56 4z m288 -138 c125 -33 207 -95 251 -190 29 -60 29 -71 6 -77 -10 -3 -18 -15 -19 -28 -2 -21 -1 -21 11 -5 7 10 18 15 24 11 7 -4 12 -1 12 8 0 8 6 16 13 19 9 3 9 7 -2 20 -8 11 -9 17 -2 17 11 0 27 -46 23 -67 -2 -7 2 -13 7 -13 6 0 10 -24 9 -55 -1 -30 -6 -55 -11 -55 -6 0 -8 22 -5 53 3 28 3 44 1 34 -5 -20 -24 -18 -31 3 -3 7 0 10 7 6 6 -4 11 -2 11 3 0 6 -7 11 -15 11 -8 0 -15 -4 -15 -9 0 -5 -10 -11 -22 -14 -21 -6 -23 -11 -20 -68 2 -35 0 -59 -5 -56 -5 3 -7 -7 -5 -24 3 -17 0 -29 -7 -29 -6 0 -11 5 -11 12 0 6 -3 9 -6 6 -3 -4 0 -17 6 -30 10 -19 10 -21 -1 -11 -9 9 -16 10 -26 2 -17 -15 -16 -8 2 27 17 32 19 120 5 174 -13 54 -34 106 -42 108 -15 4 -6 17 9 14 13 -3 13 -1 2 11 -12 13 -15 13 -22 0 -8 -12 -12 -12 -33 2 -13 8 -24 11 -24 5 0 -5 -4 -10 -10 -10 -5 0 -10 7 -10 15 0 18 -9 19 -30 4 -13 -9 -12 -10 3 -5 20 6 23 -9 3 -17 -18 -7 -29 18 -13 31 17 13 75 23 81 13 3 -5 18 -11 33 -14 16 -3 34 -16 41 -27 11 -18 11 -21 0 -15 -7 3 -6 1 3 -7 9 -7 19 -23 23 -36 4 -12 14 -22 22 -22 18 0 18 3 -5 48 -51 99 -147 129 -214 67 -33 -32 -62 -87 -71 -139 l-7 -38 -47 6 c-26 3 -102 9 -169 12 l-123 7 0 -42 0 -43 168 4 168 3 17 -69 c21 -87 55 -140 109 -167 36 -18 47 -20 79 -10 75 22 129 122 129 238 0 39 4 53 14 53 8 0 17 -4 20 -8 11 -17 -15 -146 -40 -197 -99 -210 -570 -289 -776 -132 -82 63 -122 190 -98 310 35 180 184 336 365 384 60 15 176 10 260 -12z m10 -205 c4 -7 13 -7 26 0 24 13 24 8 1 -14 -18 -15 -20 -15 -37 4 -10 11 -13 20 -7 20 6 0 14 -5 17 -10z m103 -20 c44 -41 57 -80 57 -170 0 -91 -17 -140 -56 -160 -17 -9 -25 -6 -53 22 -68 68 -74 239 -10 309 22 24 35 24 62 -1z m-112 -44 c-8 -48 -8 -48 -30 -40 -11 4 -15 12 -10 23 4 9 6 24 6 34 0 10 4 15 10 11 7 -5 9 -1 5 9 -4 12 -2 14 10 10 12 -5 14 -15 9 -47z m1144 -114 l0 -138 -74 -27 -75 -26 -21 97 c-12 53 -25 108 -29 122 -7 24 -3 27 88 67 53 22 99 41 104 42 4 1 7 -61 7 -137z m181 69 l95 -42 -15 -82 c-8 -45 -16 -84 -17 -86 -2 -2 -23 11 -49 28 l-45 31 -65 -24 -65 -24 0 134 0 134 33 -14 c17 -7 75 -32 128 -55z m-1345 -51 c1 -25 4 -52 7 -60 10 -25 11 -44 2 -63 -4 -10 -5 -21 -1 -24 3 -4 6 1 6 10 0 9 5 17 11 17 5 0 7 -5 4 -11 -4 -6 3 -17 15 -26 13 -9 19 -21 15 -31 -3 -9 -3 -13 1 -9 4 4 12 3 18 -2 18 -13 56 -20 56 -9 0 5 4 7 9 4 5 -4 12 0 15 6 2 7 4 -1 3 -19 -1 -25 -4 -30 -17 -23 -10 6 -21 3 -34 -8 -18 -16 -18 -16 -7 6 6 12 8 22 2 22 -5 0 -11 -7 -15 -15 -7 -20 -26 -19 -26 1 0 9 5 12 12 8 7 -5 8 -3 3 6 -6 10 -10 10 -20 -3 -10 -14 -13 -13 -25 6 -35 55 -59 113 -54 129 3 10 1 18 -5 18 -6 0 -11 14 -11 30 0 17 -4 30 -10 30 -5 0 -10 7 -10 15 0 8 5 15 10 15 6 0 10 7 10 16 0 9 7 14 18 12 13 -3 17 -14 18 -48z m-151 19 c63 -2 66 -3 30 -10 l-40 -7 47 1 c25 1 44 -2 41 -6 -3 -4 -29 -7 -58 -6 -32 2 -52 6 -48 12 4 6 -4 7 -21 3 -16 -4 -34 -2 -41 4 -8 7 -22 10 -32 7 -14 -4 -13 -5 5 -6 40 -2 23 -19 -23 -23 -51 -4 -55 -1 -22 12 21 8 21 9 1 9 -11 1 -24 -2 -28 -6 -3 -4 -14 -8 -23 -9 -11 -2 -12 1 -5 8 16 16 73 27 112 23 19 -3 67 -5 105 -6z m490 -114 c-3 -31 -11 -40 -20 -26 -3 6 -1 11 5 11 6 0 8 10 4 26 -5 18 -3 25 4 20 5 -3 9 -17 7 -31z m961 -107 c-3 -40 -6 -170 -7 -289 l0 -216 -106 -7 c-58 -3 -153 -6 -210 -6 l-103 0 0 218 0 218 68 26 c159 61 338 126 351 127 11 1 13 -13 7 -71z m101 20 c45 -29 88 -57 97 -63 15 -9 15 -27 1 -225 -8 -118 -15 -222 -15 -230 0 -12 -15 -15 -86 -13 l-87 2 4 223 c2 123 4 253 4 291 0 37 0 67 1 67 0 0 37 -24 81 -52z m-1090 22 c-2 -11 -9 -26 -17 -33 -10 -10 -11 -9 -4 3 9 15 10 20 13 40 0 6 3 10 6 10 3 0 3 -9 2 -20z m-105 -28 c-6 -2 -9 -9 -6 -16 3 -7 -2 -13 -11 -13 -9 0 -15 9 -15 24 0 13 4 22 9 18 5 -3 13 0 17 7 6 9 9 9 12 -2 3 -8 0 -16 -6 -18z m451 -4 l32 -32 -67 -11 c-103 -17 -134 -55 -104 -127 6 -12 0 -18 -24 -23 -35 -8 -80 15 -80 40 0 22 -6 19 -58 -24 -105 -88 -259 -150 -396 -160 -92 -7 -105 -28 -14 -23 l56 3 7 -40 c8 -46 10 -47 52 -26 16 8 44 18 61 21 27 6 33 3 41 -20 6 -14 11 -55 12 -91 1 -36 5 -65 8 -65 3 0 30 9 60 21 60 22 106 22 106 -1 0 -30 -156 -95 -213 -88 -24 3 -29 10 -42 63 -8 33 -15 62 -16 64 -2 1 -25 -4 -53 -14 -28 -9 -73 -17 -101 -18 -27 -1 -50 -5 -50 -9 0 -4 -20 0 -45 8 -95 33 -135 125 -127 290 l2 31 118 6 c64 3 126 9 137 12 16 5 21 1 22 -15 2 -20 -2 -22 -58 -18 -42 2 -59 -1 -59 -9 0 -18 121 -17 195 2 91 23 229 96 340 179 147 111 205 128 258 74z m-518 -58 c3 -5 1 -10 -4 -10 -6 0 -11 5 -11 10 0 6 2 10 4 10 3 0 8 -4 11 -10z m577 -17 c0 -10 2 -23 2 -30 1 -6 5 -15 10 -20 5 -4 6 -3 3 4 -4 6 0 18 8 27 13 13 19 13 30 3 8 -8 10 -16 4 -24 -6 -7 -6 -12 0 -15 12 -4 17 -237 6 -340 -7 -77 -7 -77 19 -89 20 -9 25 -17 20 -32 -4 -13 -2 -17 5 -13 6 4 11 13 11 21 0 7 9 17 20 20 11 4 18 9 16 13 -2 4 139 7 315 7 l318 0 -6 -30 c-3 -16 -5 -40 -4 -53 1 -34 -18 -66 -32 -53 -11 8 -196 13 -594 16 -44 0 -79 3 -77 7 3 4 -16 5 -42 1 -41 -5 -47 -4 -41 10 10 25 -2 20 -14 -5 -10 -25 -11 -29 7 67 3 17 6 42 7 58 1 15 5 27 8 27 17 0 28 291 13 340 -2 8 -16 23 -29 33 -23 17 -26 17 -50 1 -14 -9 -25 -22 -25 -29 0 -7 -7 -15 -15 -19 -8 -3 -15 -1 -15 4 0 6 5 10 12 10 6 0 8 3 5 7 -4 3 -17 -2 -28 -13 -22 -19 -22 -19 -15 6 6 21 5 22 -4 7 -9 -14 -15 -16 -26 -6 -49 41 25 96 134 98 33 1 42 -3 44 -16z m-1002 -478 c57 -29 70 -31 70 -11 0 13 4 13 35 0 19 -7 46 -14 60 -14 l25 0 -24 -47 c-51 -99 -60 -101 -154 -38 -30 19 -55 35 -57 35 -1 0 -8 -21 -14 -47 -17 -67 -38 -103 -61 -103 -15 0 -20 7 -20 29 0 57 63 221 85 221 3 0 28 -11 55 -25z"/> <path d="M515 1840 c-13 -6 -15 -9 -5 -9 8 0 22 4 30 9 18 12 2 12 -25 0z"/> <path d="M455 1807 l-20 -20 25 13 c32 16 33 17 23 23 -4 2 -17 -5 -28 -16z"/> <path d="M338 1743 c7 -3 16 -2 19 1 4 3 -2 6 -13 5 -11 0 -14 -3 -6 -6z"/> <path d="M266 1695 c-11 -8 -15 -15 -9 -15 6 0 16 7 23 15 16 19 11 19 -14 0z"/> <path d="M330 1629 c0 -5 5 -7 10 -4 6 3 10 8 10 11 0 2 -4 4 -10 4 -5 0 -10 -5 -10 -11z"/> <path d="M910 1601 c0 -6 4 -13 10 -16 6 -3 7 1 4 9 -7 18 -14 21 -14 7z"/> <path d="M220 1584 c0 -16 -2 -17 -10 -4 -6 9 -10 10 -10 3 0 -19 20 -26 26 -8 4 9 4 19 0 22 -3 4 -6 -2 -6 -13z"/> <path d="M961 1434 c0 -11 3 -14 6 -6 3 7 2 16 -1 19 -3 4 -6 -2 -5 -13z"/> <path d="M199 1213 c-8 -9 -9 -14 -2 -10 6 4 13 4 16 0 2 -5 2 -2 0 6 -2 8 2 11 12 7 9 -3 13 -2 10 4 -9 15 -21 12 -36 -7z"/> <path d="M358 1148 c5 -5 16 -8 23 -6 8 3 3 7 -10 11 -17 4 -21 3 -13 -5z"/> <path d="M305 1140 c-16 -7 -17 -9 -3 -9 9 -1 20 4 23 9 7 11 7 11 -20 0z"/> <path d="M358 1123 c7 -3 16 -2 19 1 4 3 -2 6 -13 5 -11 0 -14 -3 -6 -6z"/> <path d="M844 1545 c-32 -49 -15 -195 22 -195 22 0 34 35 34 100 0 52 -20 120 -35 120 -3 0 -12 -11 -21 -25z m32 -38 c-2 -12 -9 -21 -16 -19 -6 1 -9 -2 -5 -7 3 -6 12 -8 20 -4 19 7 20 -39 1 -82 l-13 -30 -11 40 c-16 54 -15 81 3 99 18 17 20 30 3 20 -7 -4 -8 -3 -4 5 11 18 26 3 22 -22z"/> <path d="M851 1444 c0 -11 3 -14 6 -6 3 7 2 16 -1 19 -3 4 -6 -2 -5 -13z"/> <path d="M866 1425 c-3 -9 -6 -22 -5 -28 0 -7 5 -1 10 12 5 13 8 26 5 28 -2 2 -6 -3 -10 -12z"/> <path d="M1808 1503 c7 -3 16 -2 19 1 4 3 -2 6 -13 5 -11 0 -14 -3 -6 -6z"/> <path d="M1736 1404 c-3 -9 -4 -19 -1 -22 3 -3 5 1 5 9 0 11 2 11 10 -1 5 -8 10 -10 10 -5 0 6 -4 16 -9 23 -6 11 -10 10 -15 -4z"/> <path d="M1850 1380 c0 -5 5 -10 10 -10 6 0 10 5 10 10 0 6 -4 10 -10 10 -5 0 -10 -4 -10 -10z"/> <path d="M1741 1354 c0 -11 3 -14 6 -6 3 7 2 16 -1 19 -3 4 -6 -2 -5 -13z"/> <path d="M1923 1536 c0 -20 1 -23 4 -8 2 12 9 22 14 22 23 0 169 -82 169 -94 0 -41 -10 -42 -78 -9 -37 18 -74 33 -84 33 -9 0 -18 6 -21 13 -3 6 -4 2 -4 -10 1 -12 4 -20 8 -17 4 2 23 -4 41 -14 18 -10 39 -17 47 -14 8 3 11 0 7 -6 -6 -11 10 -17 59 -24 11 -2 23 -7 27 -13 4 -6 8 -1 9 10 1 11 3 25 3 32 1 6 5 15 9 19 10 11 9 26 -2 20 -5 -4 -11 -2 -13 2 -4 9 -130 71 -168 82 -24 7 -26 5 -27 -24z"/> <path d="M1968 1403 c7 -3 16 -2 19 1 4 3 -2 6 -13 5 -11 0 -14 -3 -6 -6z"/> <path d="M701 1508 c-1 -10 -7 -18 -13 -18 -7 0 -5 -5 5 -11 24 -14 30 -7 18 22 -7 17 -10 19 -10 7z"/> <path d="M700 1440 c0 -11 4 -20 9 -20 5 0 7 9 4 20 -3 11 -7 20 -9 20 -2 0 -4 -9 -4 -20z"/> <path d="M715 1389 c-4 -6 -5 -12 -2 -15 2 -3 7 2 10 11 7 17 1 20 -8 4z"/> <path d="M761 1296 c-7 -8 -8 -17 -3 -20 6 -3 12 3 15 14 6 24 4 25 -12 6z"/> <path d="M1905 1275 c-11 -7 -31 -16 -44 -20 -18 -5 -22 -4 -17 6 4 8 1 6 -8 -5 -10 -12 -21 -16 -33 -12 -9 4 -14 4 -10 0 10 -11 -81 -46 -95 -38 -7 4 -8 2 -4 -5 5 -8 1 -11 -16 -8 -12 2 -17 2 -9 -1 10 -3 3 -9 -17 -18 -29 -12 -32 -17 -32 -59 0 -30 4 -44 11 -40 6 4 8 22 4 46 -5 26 -3 39 4 39 10 0 210 75 251 94 38 17 64 36 50 35 -8 0 -24 -6 -35 -14z"/> <path d="M1912 1248 c-7 -7 -12 -41 -12 -84 l0 -72 -52 -6 c-93 -12 -183 -29 -193 -38 -6 -6 10 -7 40 -3 28 4 64 8 80 10 17 2 41 6 55 8 23 4 25 2 27 -39 1 -24 4 -48 8 -54 7 -12 91 -12 120 0 13 5 -2 8 -45 7 l-64 -2 -4 44 c-3 33 0 42 10 39 7 -3 29 1 50 8 20 7 39 10 42 7 3 -4 6 -24 6 -45 0 -21 4 -38 8 -38 7 0 8 15 3 71 -1 23 -24 30 -61 19 -22 -6 -28 -6 -23 3 4 6 8 43 8 82 1 39 5 76 9 83 9 15 3 15 -12 0z"/> <path d="M1627 1040 c3 -11 7 -20 9 -20 2 0 4 9 4 20 0 11 -4 20 -9 20 -5 0 -7 -9 -4 -20z"/> <path d="M1738 1033 c7 -3 16 -2 19 1 4 3 -2 6 -13 5 -11 0 -14 -3 -6 -6z"/> <path d="M1688 1023 c7 -3 16 -2 19 1 4 3 -2 6 -13 5 -11 0 -14 -3 -6 -6z"/> <path d="M1885 934 c-15 -36 -18 -114 -3 -115 7 -1 28 -3 46 -5 19 -2 41 1 50 6 13 8 6 10 -28 9 -25 0 -50 0 -55 0 -6 1 -9 20 -7 46 l4 45 45 0 c39 0 44 -2 38 -19 -3 -10 -1 -29 4 -42 8 -21 10 -17 10 24 1 35 -3 47 -14 47 -8 0 -15 4 -15 8 0 10 -30 9 -47 -1 -6 -4 -13 -2 -15 5 -3 7 -8 4 -13 -8z"/> <path d="M1651 904 c0 -11 3 -14 6 -6 3 7 2 16 -1 19 -3 4 -6 -2 -5 -13z"/> <path d="M2077 1269 c7 -7 15 -10 18 -7 3 3 -2 9 -12 12 -14 6 -15 5 -6 -5z"/> <path d="M2112 1256 c-23 -12 -23 -13 10 -13 18 0 27 2 20 5 -6 2 -10 8 -6 13 7 12 4 11 -24 -5z"/> <path d="M2170 1181 c0 -11 4 -22 9 -25 4 -3 6 6 3 19 -5 30 -12 33 -12 6z"/> <path d="M2192 860 c0 -19 2 -27 5 -17 2 9 2 25 0 35 -3 9 -5 1 -5 -18z"/> <path d="M2166 827 c3 -10 9 -15 12 -12 3 3 0 11 -7 18 -10 9 -11 8 -5 -6z"/> <path d="M462 990 c0 -14 2 -19 5 -12 2 6 2 18 0 25 -3 6 -5 1 -5 -13z"/> <path d="M476 941 c-4 -7 -5 -15 -2 -18 9 -9 19 4 14 18 -4 11 -6 11 -12 0z"/> <path d="M529 791 c8 -5 10 -14 6 -21 -5 -9 -4 -11 3 -6 7 4 12 2 12 -3 0 -6 5 -11 10 -11 6 0 3 11 -6 25 -9 14 -21 25 -28 25 -6 0 -5 -4 3 -9z"/> <path d="M1260 1166 c0 -8 4 -17 9 -20 5 -4 7 3 4 14 -6 23 -13 26 -13 6z"/> <path d="M1491 963 c0 -4 4 -17 9 -28 8 -19 9 -19 9 2 1 12 -3 25 -9 28 -5 3 -10 3 -9 -2z"/> <path d="M1521 704 c0 -11 3 -14 6 -6 3 7 2 16 -1 19 -3 4 -6 -2 -5 -13z"/> <path d="M1578 663 c7 -3 16 -2 19 1 4 3 -2 6 -13 5 -11 0 -14 -3 -6 -6z"/> <path d="M376 702 c-2 -4 0 -14 6 -22 8 -12 9 -12 5 2 -3 9 -1 19 6 22 9 3 9 5 0 5 -6 1 -14 -3 -17 -7z"/> <path d="M445 681 c-3 -5 -2 -12 3 -15 5 -3 9 1 9 9 0 17 -3 19 -12 6z"/> <path d="M1522 1796 c-45 -35 -85 -66 -89 -69 -3 -3 12 -35 33 -71 34 -59 42 -67 95 -86 l57 -22 91 63 c51 34 90 65 89 68 -2 3 -18 34 -36 68 -31 55 -39 64 -94 87 -32 14 -60 26 -61 26 -1 0 -39 -29 -85 -64z m117 -23 c26 -48 29 -58 16 -65 -8 -5 -43 -28 -78 -51 l-63 -42 -30 51 -31 51 71 56 c39 31 74 56 78 56 3 1 20 -25 37 -56z m35 38 c25 -13 49 -38 71 -75 l33 -55 -46 24 c-35 18 -54 36 -74 74 -16 28 -27 51 -25 51 1 0 20 -9 41 -19z m47 -123 c22 -6 39 -14 38 -17 0 -3 -33 -27 -74 -53 l-75 -47 -36 15 c-21 9 -33 19 -28 24 10 9 126 88 133 89 2 1 21 -4 42 -11z"/> <path d="M1535 1755 c-16 -14 -24 -25 -17 -25 7 0 10 -5 7 -10 -4 -6 -11 -8 -16 -5 -5 4 -9 1 -9 -4 0 -14 11 -13 32 3 10 7 14 16 10 20 -3 4 4 16 18 26 14 11 21 19 15 19 -5 0 -23 -11 -40 -24z"/> <path d="M1601 1738 c7 -14 6 -18 -6 -18 -17 0 -20 -16 -6 -25 12 -7 22 9 25 39 2 13 -3 23 -10 23 -9 0 -10 -5 -3 -19z"/> <path d="M1495 1680 c3 -5 16 -15 28 -21 22 -12 22 -12 3 10 -19 21 -43 30 -31 11z"/> <path d="M1635 1620 c-3 -6 1 -7 9 -4 18 7 21 14 7 14 -6 0 -13 -4 -16 -10z"/> <path d="M1006 1792 c5 -4 12 -11 15 -15 3 -5 9 -2 12 5 3 9 -3 14 -15 15 -11 1 -16 -1 -12 -5z"/> <path d="M1096 1707 c3 -10 9 -15 12 -12 3 3 0 11 -7 18 -10 9 -11 8 -5 -6z"/> <path d="M1446 1573 c-6 -14 -5 -15 5 -6 7 7 10 15 7 18 -3 3 -9 -2 -12 -12z"/> <path d="M1125 1301 c-3 -5 -2 -12 3 -15 5 -3 9 1 9 9 0 17 -3 19 -12 6z"/> <path d="M1086 1283 c-6 -14 -5 -15 5 -6 7 7 10 15 7 18 -3 3 -9 -2 -12 -12z"/> <path d="M2300 931 c0 -6 4 -13 10 -16 6 -3 7 1 4 9 -7 18 -14 21 -14 7z"/> <path d="M2301 684 c0 -11 3 -14 6 -6 3 7 2 16 -1 19 -3 4 -6 -2 -5 -13z"/> <path d="M1474 526 c-59 -50 -21 -146 57 -146 30 0 43 7 64 32 32 38 29 81 -11 116 -33 29 -76 28 -110 -2z m104 -32 c16 -16 16 -50 -1 -57 -7 -3 -24 -3 -38 -2 -16 2 -26 -2 -26 -11 0 -7 5 -10 11 -6 6 4 24 7 39 8 25 2 26 0 10 -11 -13 -10 -20 -10 -25 -2 -4 7 -11 7 -22 -3 -18 -14 -17 -15 -34 20 l-12 25 5 -25 c6 -24 6 -24 -10 -5 -9 12 -12 21 -5 23 5 2 10 11 10 20 0 10 5 24 11 32 8 11 9 8 5 -15 -5 -25 -4 -27 5 -12 6 10 9 27 6 37 -4 16 -1 17 27 7 17 -6 37 -16 44 -23z"/> <path d="M1958 510 c-25 -26 -29 -36 -24 -63 13 -70 90 -98 142 -53 58 49 20 146 -57 146 -21 0 -40 -10 -61 -30z m102 -5 c6 -3 10 -14 10 -24 0 -9 6 -23 13 -30 10 -11 9 -14 -1 -18 -6 -3 -10 -9 -7 -14 4 -5 -1 -6 -10 -3 -14 6 -14 8 2 20 16 13 15 13 -9 3 -26 -11 -26 -13 -10 -26 13 -11 13 -13 2 -10 -8 2 -24 1 -36 -4 -32 -12 -49 6 -50 53 0 24 1 37 3 31 3 -7 9 -13 14 -13 6 0 7 5 4 10 -14 22 3 39 35 35 17 -2 35 -7 40 -10z"/> <path d="M1987 429 c7 -9 10 -19 6 -23 -4 -4 1 -4 10 0 10 3 17 7 15 8 -2 1 -12 8 -23 16 -18 14 -19 13 -8 -1z"/> </g> </svg> 