<?xml version="1.0" standalone="no"?>
<!DOCTYPE svg PUBLIC "-//W3C//DTD SVG 20010904//EN"
 "http://www.w3.org/TR/2001/REC-SVG-20010904/DTD/svg10.dtd">
<svg version="1.0" xmlns="http://www.w3.org/2000/svg"
 width="223.000000pt" height="300.000000pt" viewBox="0 0 223.000000 300.000000"
 preserveAspectRatio="xMidYMid meet">
<metadata>
Created by potrace 1.10, written by Peter Selinger 2001-2011
</metadata>
<g transform="translate(0.000000,300.000000) scale(0.100000,-0.100000)"
fill="#4caf50" stroke="none">
<path d="M868 2453 c7 -3 16 -2 19 1 4 3 -2 6 -13 5 -11 0 -14 -3 -6 -6z"/>
<path d="M840 2368 c-11 -18 -25 -57 -31 -88 -6 -30 -22 -80 -37 -110 -14 -30
-25 -58 -24 -62 1 -4 -18 -38 -43 -75 -59 -87 -72 -130 -56 -182 6 -22 25 -51
42 -65 29 -24 113 -56 150 -56 21 0 33 -16 19 -25 -5 -3 -10 -14 -10 -23 0 -9
-12 -28 -27 -44 -14 -15 -24 -31 -20 -34 3 -3 20 10 37 29 l31 36 52 -15 c65
-19 170 -70 191 -93 14 -15 2 -15 -137 6 -84 12 -172 25 -196 28 -32 4 -49 13
-64 33 -42 55 -87 90 -186 146 -56 32 -99 61 -96 65 2 5 -26 22 -64 39 l-69
30 -4 72 c-3 56 -8 75 -23 86 -40 30 -51 19 -131 -132 -42 -80 -78 -154 -81
-164 -8 -31 36 -66 93 -74 65 -9 117 -36 108 -56 -13 -29 -17 -162 -5 -170 7
-4 13 -44 14 -106 2 -88 5 -104 30 -146 32 -55 73 -87 122 -95 24 -4 35 -11
35 -23 0 -10 6 -22 13 -28 6 -5 141 -28 299 -50 158 -22 293 -44 299 -47 33
-21 64 -145 37 -145 -7 0 -140 17 -295 37 -195 26 -283 42 -283 50 0 11 -20
17 -86 25 -30 4 -54 -20 -54 -52 0 -41 21 -52 102 -55 40 -1 84 -3 97 -4 l24
-1 -25 -20 c-33 -26 -42 -73 -23 -115 33 -68 110 -78 163 -21 37 41 40 68 13
112 l-19 31 35 -8 c20 -4 70 -11 111 -15 53 -5 70 -9 58 -16 -9 -5 -23 -23
-32 -40 -43 -82 48 -178 129 -137 53 27 74 100 42 146 -14 20 -14 21 37 19 46
-1 54 2 65 24 23 42 12 140 -20 189 -15 22 -27 42 -27 43 0 2 27 3 59 3 50 0
66 5 102 30 56 40 70 69 124 270 52 189 68 215 157 261 40 20 53 22 95 15 54
-10 61 -8 73 23 7 18 14 21 49 18 23 -2 41 -8 41 -13 0 -5 13 -15 29 -24 18
-9 34 -28 41 -50 6 -20 23 -49 37 -65 41 -49 77 -34 49 20 -19 39 -9 38 43 -7
37 -31 47 -35 69 -27 25 9 81 91 82 120 0 6 -16 29 -36 52 -26 30 -49 46 -86
57 -28 8 -72 27 -97 42 -25 15 -55 28 -66 29 -11 1 -57 14 -102 27 -105 33
-220 50 -280 42 -47 -6 -48 -6 -18 8 17 8 44 30 62 48 90 95 87 235 -9 326
-123 118 -329 87 -402 -59 -41 -82 -31 -184 24 -243 l20 -21 -58 2 c-54 3
-204 22 -229 29 -8 3 -7 17 5 54 9 28 19 51 23 51 5 0 11 16 15 35 4 22 13 37
26 41 27 8 98 73 98 90 0 22 -20 26 -45 10 -13 -9 -27 -16 -30 -16 -3 0 9 27
26 61 28 57 29 62 14 79 -24 27 -100 60 -135 60 -23 0 -35 -7 -50 -32z m52 16
c4 -3 -5 -30 -19 -60 -13 -30 -23 -60 -20 -67 3 -7 7 -4 12 8 21 60 50 115 62
115 17 0 17 1 -6 -51 -28 -65 -34 -89 -22 -89 6 0 11 7 11 15 0 23 43 105 54
105 6 0 22 -9 36 -20 l25 -19 -34 -66 c-19 -36 -31 -68 -27 -72 3 -4 22 1 41
10 20 9 39 17 42 17 15 0 -55 -63 -89 -81 -27 -14 -38 -26 -40 -46 -3 -25 -6
-28 -38 -25 -19 2 -54 14 -76 27 l-41 24 28 57 c16 31 29 69 29 84 0 15 7 47
15 70 21 59 40 81 57 64z m571 -120 l37 -18 0 -78 c0 -68 -2 -78 -18 -78 -57
0 -86 -82 -41 -114 l22 -15 -33 -41 c-46 -58 -61 -64 -115 -45 -25 8 -63 18
-84 21 -54 9 -91 63 -98 144 -11 116 49 203 167 241 37 12 120 4 163 -17z
m126 -141 c32 -114 -17 -212 -132 -263 -64 -29 -90 -20 -48 16 17 14 38 38 48
54 14 24 21 27 49 23 39 -6 74 24 74 64 0 30 -25 63 -49 63 -13 0 -16 13 -16
76 l0 75 32 -34 c17 -20 36 -52 42 -74z m-714 -83 l23 0 -19 -60 c-10 -33 -26
-74 -34 -91 -9 -17 -14 -36 -12 -42 3 -7 13 7 23 31 19 48 19 47 134 28 l75
-12 -40 -18 c-22 -9 -66 -44 -97 -78 -53 -56 -60 -60 -91 -54 -32 6 -33 8 -33
54 -1 63 -26 108 -79 140 -25 15 -43 32 -40 39 2 7 21 35 41 62 l37 49 45 -24
c25 -13 55 -24 67 -24z m594 19 c-15 -15 -20 -30 -16 -52 4 -27 3 -28 -10 -12
-7 11 -13 25 -13 32 0 15 36 53 50 53 6 0 1 -9 -11 -21z m79 -5 c49 -34 6
-106 -52 -85 -21 9 -26 17 -26 45 0 51 36 70 78 40z m-1281 -6 c6 -7 13 -42
17 -78 7 -73 21 -92 87 -111 21 -7 39 -16 39 -21 0 -4 -12 -25 -28 -47 -15
-21 -36 -56 -46 -79 -23 -50 -42 -56 -92 -26 -22 14 -55 24 -75 24 -38 0 -89
31 -89 55 0 14 104 222 134 268 20 29 38 34 53 15z m451 -120 c39 -24 71 -85
72 -135 0 -37 -5 -39 -58 -18 -47 19 -72 60 -72 117 0 65 6 68 58 36z m597
-74 c70 -24 96 -28 210 -29 100 -1 150 -7 215 -24 47 -13 95 -25 108 -28 12
-3 22 -7 22 -9 0 -2 -11 -20 -25 -40 -14 -20 -25 -43 -25 -50 0 -19 -77 -18
-96 1 -17 16 -99 21 -108 6 -3 -5 -18 -12 -33 -16 -16 -4 -53 -22 -84 -41 -31
-19 -60 -34 -63 -34 -4 0 -16 21 -27 46 -15 33 -19 56 -14 87 4 31 3 38 -4 27
-24 -34 -3 -139 33 -162 7 -5 3 -15 -12 -31 -12 -13 -19 -27 -15 -32 5 -4 3
-5 -4 -1 -6 3 -14 3 -17 -2 -3 -5 -54 -1 -114 8 -91 14 -116 21 -142 43 -43
37 -166 94 -217 103 l-42 6 14 28 c23 45 108 126 161 154 43 23 58 26 124 22
47 -2 105 -14 155 -32z m-814 -80 c97 -53 155 -96 195 -143 23 -28 25 -33 8
-28 -10 3 -64 11 -119 18 -55 7 -107 18 -115 25 -9 7 -42 16 -73 20 -31 4 -57
11 -57 17 0 9 71 137 76 137 1 0 39 -21 85 -46z m1539 -86 c41 -14 66 -29 84
-53 42 -55 30 -60 -25 -11 -68 62 -75 51 -9 -12 31 -30 49 -55 45 -62 -4 -7
-24 5 -55 34 -27 26 -54 46 -60 46 -17 0 -12 -9 13 -22 34 -19 90 -85 82 -98
-4 -7 -26 7 -55 34 -27 26 -57 46 -67 46 -13 0 -10 -5 12 -19 17 -10 43 -33
59 -50 27 -28 28 -31 9 -31 -11 0 -28 9 -39 21 -20 22 -66 49 -84 49 -6 0 -5
-14 5 -37 8 -20 13 -38 10 -41 -10 -10 -45 32 -61 75 -11 29 -27 49 -46 59
-26 13 -29 19 -23 47 4 18 18 49 32 69 l25 37 45 -30 c24 -17 70 -40 103 -51z
m-325 -48 c0 -21 -5 -25 -35 -28 -50 -3 -67 10 -53 41 10 21 16 23 50 18 32
-5 38 -10 38 -31z m-1282 3 c24 -4 28 -9 23 -26 -3 -12 -6 -28 -6 -36 0 -10
-9 -12 -33 -8 -46 7 -59 -4 -66 -55 -6 -41 -7 -43 -41 -43 l-35 0 -3 69 c-2
50 1 75 13 93 15 23 21 24 68 18 29 -3 65 -9 80 -12z m1177 0 c0 -12 -23 -30
-66 -52 -36 -18 -75 -48 -88 -65 -14 -19 -39 -95 -65 -196 -44 -170 -73 -236
-114 -263 -61 -40 -79 -39 -485 18 -432 61 -440 64 -481 147 -17 35 -21 63
-21 136 0 86 1 92 21 92 18 0 20 -5 15 -54 -3 -36 -1 -58 7 -64 15 -12 170
-32 180 -23 4 4 8 32 10 62 l2 54 -84 12 c-91 13 -93 14 -83 30 5 8 30 9 91 2
46 -5 85 -8 87 -7 1 2 6 27 10 56 l7 52 -42 0 c-35 0 -41 3 -41 21 0 18 4 20
38 15 20 -3 219 -31 442 -61 223 -30 413 -57 422 -59 12 -3 29 12 51 43 24 33
54 57 103 84 80 42 84 43 84 20z m-1095 -79 c17 -4 20 -12 17 -40 l-4 -35 -60
6 c-95 8 -106 13 -100 41 6 33 37 31 74 -6 35 -36 52 -32 19 4 -17 18 -19 25
-9 29 18 7 39 8 63 1z m-30 -139 c29 -5 30 -7 27 -51 -4 -41 -6 -45 -26 -40
-11 2 -49 8 -83 12 l-63 7 0 47 0 47 58 -8 c31 -5 71 -11 87 -14z m312 -355
c329 -45 307 -37 349 -125 27 -56 29 -86 13 -135 -14 -38 28 -39 -366 11 -236
29 -263 34 -263 51 0 10 3 18 8 18 4 0 134 -18 290 -40 156 -22 287 -40 292
-40 20 0 22 68 2 111 -33 75 -30 74 -332 113 -275 37 -327 47 -315 66 8 13
-18 16 322 -30z m-279 -156 c2 -1 1 -17 -3 -34 -7 -32 -8 -32 -52 -27 -58 6
-70 18 -55 52 11 25 15 26 60 19 26 -3 49 -8 50 -10z m197 -119 c37 -36 34
-86 -6 -119 -40 -34 -74 -33 -110 3 -56 57 -23 141 56 141 25 0 44 -8 60 -25z
m326 -44 c17 -18 29 -40 29 -56 0 -38 -50 -85 -90 -85 -71 0 -107 94 -55 145
34 35 78 33 116 -4z"/>
<path d="M955 2290 c-14 -29 -24 -54 -21 -57 8 -8 26 7 26 23 0 8 7 29 16 45
8 17 13 33 10 36 -2 3 -17 -18 -31 -47z"/>
<path d="M1376 1953 c-6 -14 -5 -15 5 -6 7 7 10 15 7 18 -3 3 -9 -2 -12 -12z"/>
<path d="M1379 1923 c-13 -16 -12 -17 4 -4 9 7 17 15 17 17 0 8 -8 3 -21 -13z"/>
<path d="M120 1775 c8 -11 15 -21 16 -23 1 -2 5 5 8 15 4 9 4 14 0 10 -4 -4
-14 -1 -23 6 -14 11 -15 10 -1 -8z"/>
<path d="M937 1729 c7 -7 15 -10 18 -7 3 3 -2 9 -12 12 -14 6 -15 5 -6 -5z"/>
<path d="M586 1558 c-14 -44 -16 -89 -4 -93 24 -9 219 -32 222 -26 2 3 7 27
11 52 l7 47 -89 11 c-48 7 -100 15 -116 17 -17 4 -28 1 -31 -8z m114 -19 c36
-6 72 -11 80 -12 19 -1 27 -77 8 -77 -27 1 -188 27 -193 32 -3 3 -2 19 1 36 7
36 10 37 104 21z"/>
<path d="M856 1518 c-5 -16 -15 -88 -13 -89 1 0 55 -8 120 -18 81 -11 121 -14
126 -6 5 5 11 29 14 53 6 48 14 44 -116 61 -101 14 -127 14 -131 -1z m228 -67
c-4 -20 -8 -37 -9 -39 -3 -4 -206 26 -212 32 -3 3 -3 20 1 38 l6 33 110 -14
110 -15 -6 -35z"/>
<path d="M1144 1488 c-4 -6 -10 -29 -14 -50 -6 -30 -4 -40 9 -47 23 -12 210
-35 219 -27 12 13 32 90 24 97 -4 4 -54 12 -112 19 -57 6 -108 14 -112 16 -3
2 -10 -1 -14 -8z m88 -42 c20 -24 21 -26 9 -44 -12 -20 -104 -5 -97 15 3 8 6
25 6 39 0 21 3 23 33 17 17 -3 40 -15 49 -27z m67 14 c11 0 10 -5 -4 -20 -17
-19 -19 -19 -37 -4 -25 23 -23 38 5 30 12 -3 28 -6 36 -6z m71 -20 c0 -4 -5
-21 -11 -39 -8 -22 -16 -30 -26 -27 -8 3 -30 6 -49 6 -19 0 -34 5 -34 10 0 6
6 10 14 10 7 0 27 13 44 30 28 27 62 32 62 10z"/>
<path d="M566 1408 c-15 -73 -14 -97 2 -102 29 -8 214 -28 219 -23 2 3 7 29
10 59 l5 55 -93 12 c-52 7 -104 15 -116 18 -17 4 -23 0 -27 -19z m125 -10 l89
-12 0 -32 c0 -61 -2 -62 -91 -48 -45 7 -87 18 -94 24 -10 8 -14 7 -18 -2 -3
-7 -3 1 -2 17 2 17 4 38 4 48 1 20 0 20 112 5z"/>
<path d="M835 1378 c-2 -7 -6 -34 -10 -59 l-6 -46 122 -17 c67 -9 124 -15 127
-12 5 6 23 108 19 112 -2 2 -226 34 -239 34 -5 0 -10 -6 -13 -12z m230 -72
c-3 -22 -8 -42 -10 -44 -2 -2 -51 2 -109 8 -104 13 -106 13 -106 39 0 68 -1
68 121 51 l111 -14 -7 -40z"/>
<path d="M1116 1333 c-3 -10 -6 -36 -8 -58 l-3 -40 80 -13 c126 -19 136 -16
152 43 7 28 13 53 13 56 0 5 -176 29 -215 29 -7 0 -16 -8 -19 -17z m54 -7 c0
-2 -11 -13 -26 -27 -19 -18 -24 -19 -20 -6 4 9 8 24 11 32 2 8 11 12 20 9 8
-3 15 -7 15 -8z m113 -11 c52 -7 51 -5 36 -58 -10 -37 -12 -39 -42 -33 -18 3
-54 8 -82 11 -82 10 -82 12 -40 55 27 27 45 38 59 35 12 -2 42 -7 69 -10z"/>
<path d="M330 1282 c0 -50 84 -122 143 -122 22 0 25 5 31 56 4 31 5 59 3 61
-6 5 -118 23 -149 23 -20 0 -28 -5 -28 -18z m102 -7 c63 -7 65 -8 61 -33 -11
-71 -11 -71 -42 -62 -47 13 -71 30 -91 63 -23 37 -25 51 -7 44 8 -3 43 -8 79
-12z"/>
<path d="M435 1230 c-3 -5 -1 -10 4 -10 6 0 11 5 11 10 0 6 -2 10 -4 10 -3 0
-8 -4 -11 -10z"/>
<path d="M546 1258 c-10 -30 -13 -98 -6 -103 16 -10 215 -33 223 -26 4 4 10
31 14 59 7 58 15 53 -114 72 -93 13 -113 13 -117 -2z m119 -49 c22 -21 53 -43
69 -49 45 -17 25 -22 -45 -11 -35 6 -81 11 -101 13 -41 2 -43 8 -32 66 6 28 9
31 38 25 17 -3 49 -23 71 -44z m91 22 c10 -1 7 -61 -3 -61 -13 0 -61 31 -81
53 l-23 24 48 -8 c26 -4 53 -8 59 -8z"/>
<path d="M816 1231 c-2 -3 -7 -29 -11 -57 -6 -48 -5 -52 17 -57 43 -10 219
-30 224 -25 3 3 8 29 13 57 7 47 6 52 -13 56 -52 12 -227 31 -230 26z m124
-25 l95 -13 -40 -18 c-22 -10 -70 -21 -107 -23 -63 -4 -68 -3 -68 16 0 25 10
52 19 51 3 0 49 -6 101 -13z m104 -65 c-5 -32 -10 -40 -23 -37 -9 3 -50 8 -91
12 l-75 8 54 8 c30 5 73 19 95 31 23 13 42 23 44 22 1 -1 0 -21 -4 -44z"/>
<path d="M1096 1178 c-15 -73 -13 -90 11 -99 62 -23 155 5 190 57 22 34 11 40
-81 48 -39 4 -81 10 -93 13 -17 4 -23 0 -27 -19z m124 -11 l75 -12 -26 -27
c-32 -32 -80 -46 -132 -40 -28 3 -37 8 -33 19 3 8 6 28 6 44 0 33 0 33 110 16z"/>
<path d="M620 765 c-16 -19 -9 -45 16 -62 19 -12 24 -11 45 6 21 16 22 22 11
45 -13 29 -52 36 -72 11z m55 -25 c0 -16 -6 -26 -19 -28 -24 -5 -37 17 -25 41
14 26 44 17 44 -13z"/>
<path d="M950 720 c-16 -16 -18 -25 -10 -40 14 -26 27 -33 54 -26 32 8 40 33
21 62 -19 29 -39 30 -65 4z m57 -16 c3 -8 -2 -23 -11 -32 -15 -15 -17 -15 -32
0 -21 21 -11 48 16 48 11 0 23 -7 27 -16z"/>
</g>
</svg>
