 <svg  version="1.0" xmlns="http://www.w3.org/2000/svg"  width="300.000000pt" height="300.000000pt" viewBox="0 0 300.000000 300.000000"  preserveAspectRatio="xMidYMid meet">  <g transform="translate(0.000000,300.000000) scale(0.100000,-0.100000)" fill="#4caf50" stroke="none"> <path d="M1674 2028 c-10 -15 7 -47 28 -54 16 -5 27 0 40 16 10 13 17 28 15 34 -4 12 -76 16 -83 4z"/> <path d="M1408 2004 c-15 -8 -30 -25 -34 -38 -4 -17 -11 -22 -23 -19 -10 2 -31 -6 -46 -20 -57 -49 -7 -104 105 -114 l58 -6 12 38 c7 21 13 60 13 88 1 40 -3 53 -22 68 -27 22 -28 22 -63 3z m53 -51 c11 -30 3 -80 -17 -100 -17 -17 -79 -17 -97 2 -8 8 -17 11 -21 8 -3 -4 -6 -1 -6 5 0 5 -3 17 -6 25 -4 11 5 19 30 27 20 6 42 20 49 31 8 10 17 16 20 12 4 -3 7 -1 7 5 0 23 31 12 41 -15z"/> <path d="M1564 1908 c-12 -18 -6 -76 11 -108 13 -26 20 -29 43 -24 64 14 102 39 102 68 0 13 -34 36 -53 36 -12 0 -28 9 -35 20 -13 22 -56 27 -68 8z m81 -49 c39 -23 35 -43 -11 -52 -20 -3 -28 1 -40 25 -26 50 -6 60 51 27z"/> <path d="M1860 1830 c0 -9 9 -25 20 -35 19 -17 21 -17 40 0 34 31 26 52 -20 52 -31 0 -40 -4 -40 -17z"/> <path d="M774 1766 c-3 -8 -4 -25 -2 -38 3 -22 8 -23 86 -26 l83 -3 31 -64 c18 -35 36 -61 41 -58 6 3 7 1 3 -5 -9 -14 25 -83 37 -75 6 3 7 1 3 -5 -7 -11 39 -112 56 -123 5 -3 9 -9 8 -13 -4 -16 44 -115 53 -109 6 3 7 1 3 -5 -3 -6 6 -36 21 -66 26 -54 26 -56 8 -76 -29 -32 -25 -87 9 -116 l27 -24 360 0 359 0 0 40 0 40 -334 0 c-328 0 -366 4 -339 31 6 6 122 11 269 12 220 2 264 4 285 18 16 11 62 92 137 243 129 263 135 285 78 342 l-34 34 -464 0 c-439 0 -465 -1 -494 -19 l-32 -19 -20 49 -21 49 -106 0 c-82 0 -107 -3 -111 -14z m215 -38 c10 -16 10 -19 -1 -13 -7 4 0 -3 15 -16 27 -24 28 -25 14 -64 l-15 -40 -12 48 c-17 64 -50 87 -125 87 -37 0 -54 4 -50 10 4 7 39 10 84 9 65 -1 80 -5 90 -21z m1035 -69 c16 -12 26 -30 26 -45 0 -14 -49 -126 -109 -250 -85 -175 -115 -226 -133 -231 -13 -5 -135 -6 -273 -3 l-250 5 -117 235 c-122 244 -126 258 -86 293 19 16 56 17 468 17 437 0 448 0 474 -21z m-744 -583 c-14 -14 -12 -32 6 -50 13 -14 57 -16 325 -16 285 0 369 -7 272 -24 -95 -17 -115 -18 -126 -7 -14 14 -333 15 -342 1 -8 -13 -78 -13 -90 -1 -6 5 -27 11 -49 13 -28 2 -43 10 -55 28 -13 20 -14 23 -1 15 12 -7 13 -6 3 6 -9 12 -10 24 -1 51 l11 36 29 -21 c19 -14 25 -24 18 -31z"/> <path d="M1505 1640 c-231 -3 -412 -8 -402 -12 10 -5 202 -8 427 -8 492 0 470 7 406 -118 -88 -174 -147 -303 -152 -333 l-6 -34 24 40 c12 22 63 122 112 221 84 173 88 183 75 210 -8 15 -25 30 -39 33 -14 3 -214 4 -445 1z"/> <path d="M1327 934 c-28 -15 -47 -49 -47 -85 0 -32 53 -79 90 -79 42 0 90 47 90 89 0 64 -76 107 -133 75z m64 -44 c31 -17 18 -70 -17 -70 -14 0 -44 27 -44 40 0 9 28 40 36 40 3 0 14 -5 25 -10z"/> <path d="M1764 940 c-30 -12 -54 -49 -54 -83 0 -39 49 -87 88 -87 90 0 122 124 43 165 -33 17 -46 18 -77 5z m60 -56 c27 -27 12 -64 -26 -64 -15 0 -38 27 -38 44 0 8 31 36 40 36 5 0 16 -7 24 -16z"/> </g> </svg> 